# AST/ASF file generated using VICON BodyLanguage
# -----------------------------------------------
:version 1.10
:name VICON
:units
  mass 1.0
  length 0.45
  angle deg
:documentation
   .ast/.asf automatically generated from VICON data using
   VICON BodyBuilder and BodyLanguage model FoxedUp or BRILLIANT.MOD
:root
   order TX TY TZ RX RY RZ
   axis XYZ
   position 0 0 0  
   orientation 0 0 0 
:bonedata
  begin
     id 1 
     name lhipjoint
     direction 0.558404 -0.748506 0.357664 
     length 2.4234 
     axis 0 0 0  XYZ
  end
  begin
     id 2 
     name lfemur
     direction 0.34202 -0.939693 0  
     length 7.14567  
     axis 0 0 20  XYZ
    dof rx ry rz
    limits (-160.0 20.0)
           (-70.0 70.0)
           (-60.0 70.0)
  end
  begin
     id 3 
     name ltibia
     direction 0.34202 -0.939693 0   
     length 8.13956   
     axis 0 0 20   XYZ
    dof rx
    limits (-10.0 170.0)
  end
  begin
     id 4 
     name lfoot
     direction 0.0791314 -0.217412 0.972867   
     length 2.00134   
     axis -90 7.62852e-016 20   XYZ
    dof rx rz
    limits (-45.0 90.0)
           (-70.0 20.0)
  end
  begin
     id 5 
     name ltoes
     direction 1.53547e-011 -4.21922e-011 1   
     length 1.00735   
     axis -90 7.62852e-016 20   XYZ
    dof rx
    limits (-90.0 20.0)
  end
  begin
     id 6 
     name rhipjoint
     direction -0.496392 -0.78327 0.374276   
     length 2.31584  
     axis 0 0 0  XYZ 
  end
  begin
     id 7 
     name rfemur
     direction -0.34202 -0.939693 0   
     length 7.47417   
     axis 0 0 -20   XYZ
    dof rx ry rz
    limits (-160.0 20.0)
           (-70.0 70.0)
           (-70.0 60.0)
  end
  begin
     id 8 
     name rtibia
     direction -0.34202 -0.939693 0   
     length 7.69071   
     axis 0 0 -20   XYZ
    dof rx
    limits (-10.0 170.0)
 end
 begin
     id 9 
     name rfoot
     direction -0.103069 -0.28318 0.953512   
     length 2.16135  
     axis -90 -7.62852e-016 -20   XYZ
    dof rx rz
    limits (-45.0 90.0)
           (-20.0 70.0)
  end
  begin
     id 10 
     name rtoes
     direction -1.53581e-011 -4.21904e-011 1   
     length 1.07867   
     axis -90 -7.62852e-016 -20   XYZ
    dof rx
    limits (-90.0 20.0)
  end
  begin
     id 11 
     name lowerback
     direction -0.0258961 0.994776 -0.0987407   
     length 2.19412   
     axis 0 0 0   XYZ
    dof rx ry rz
    limits (-20.0 45.0)
           (-30.0 30.0)
           (-30.0 30.0)
  end
  begin
     id 12 
     name upperback
     direction 0.0402454 0.999185 0.00320666   
     length 2.18445   
     axis 0 0 0   XYZ
    dof rx ry rz
    limits (-20.0 45.0)
           (-30.0 30.0)
           (-30.0 30.0)
  end
  begin
     id 13 
     name thorax
     direction 0.0519376 0.997415 0.0496558   
     length 2.21487   
     axis 0 0 0   XYZ
    dof rx ry rz
    limits (-20.0 45.0)
           (-30.0 30.0)
           (-30.0 30.0)
  end
  begin
     id 14 
     name lowerneck
     direction -0.0921276 0.983211 0.157506   
     length 1.61201   
     axis 0 0 0   XYZ
    dof rx ry rz
    limits (-20.0 45.0)
           (-30.0 30.0)
           (-30.0 30.0)
  end
  begin
     id 15 
     name upperneck
     direction 0.0820814 0.98162 -0.172292   
     length 1.65275   
     axis 0 0 0   XYZ
    dof rx ry rz
    limits (-20.0 45.0)
           (-30.0 30.0)
           (-30.0 30.0)
  end
  begin
     id 16
     name head
     direction 0.0336554 0.996413 -0.0776455  
     length 1.66415  
     axis 0 0 0   XYZ
    dof rx ry rz
    limits (-20.0 45.0)
           (-30.0 30.0)
           (-30.0 30.0)
  end
  begin
     id 17 
     name lclavicle
     direction 0.94696 0.284418 -0.149576  
     length 3.41447  
     axis 0 0 0   XYZ
    dof ry rz
    limits (-20.0 10.0)
           (0.0 20.0)
  end
  begin
     id 18 
     name lhumerus
     direction 1 -0.000130264 -9.81312e-005   
     length 5.19964   
     axis 180 -30 -90   XYZ
    dof rx ry rz
    limits (-60.0 90.0)
           (-90.0 90.0)
           (-90.0 90.0)
  end
  begin
     id 19
     name lradius
     direction 1 -4.48961e-011 1.43854e-026   
     length 3.32189   
     axis 180 -30 -90   XYZ
    dof rx
    limits (-10.0 170.0)
  end
  begin
     id 20
     name lwrist
     direction 1 -4.48958e-011 3.1502e-026   
     length 1.66095   
     axis -1.97692e-014 90 90   XYZ
    dof ry
    limits (-180.0 0.0)
 end
  begin
     id 21 
     name lhand
     direction 1 -4.48927e-011 6.3004e-026   
     length 0.645616   
     axis -4.02019e-014 90 90   XYZ
    dof rx rz
    limits (-90.0 90.0)
           (-45.0 45.0)
  end
  begin
     id 22 
     name lfingers
     direction 1 -4.4904e-011 1.26008e-025   
     length 0.520512   
     axis -8.04039e-014 90 90   XYZ
    dof rx
    limits (0.0 90.0)
  end
  begin
     id 23
     name lthumb
     direction 0.707107 -6.34947e-011 0.707107   
     length 0.747354   
     axis -90 45 2.85299e-015   XYZ
    dof rx rz
    limits (-45.0 45.0)
           (-45.0 45.0)
  end
  begin
     id 24 
     name rclavicle
     direction -0.909391 0.383475 -0.161107   
     length 3.25176  
     axis 0 0 0   XYZ 
    dof ry rz
    limits (-10.0 20.0)
           (-20.0 0.0)
  end
  begin
     id 25 
     name rhumerus
     direction -1 -4.48965e-011 -1.81384e-027  
     length 5.6595   
     axis 180 30 90   XYZ
    dof rx ry rz
    limits (-90.0 60.0)
           (-90.0 90.0)
           (-90.0 90.0)
  end
  begin
     id 26 
     name rradius
     direction -1 -4.48996e-011 -8.09397e-027   
     length 3.37604   
     axis 180 30 90   XYZ
    dof rx
    limits (-10.0 170.0)
  end
  begin
     id 27 
     name rwrist
     direction -1 -4.48927e-011 -1.56669e-026   
     length 1.68802   
     axis 1.21142e-014 -90 -90   XYZ
    dof ry
    limits (-180.0 0.0)
  end
  begin
     id 28
     name rhand
     direction -1 -4.48912e-011 -3.13339e-026   
     length 0.824702   
     axis 1.99937e-014 -90 -90   XYZ
    dof rx rz
    limits (-90.0 90.0)
           (-45.0 45.0)
  end
  begin
     id 29
     name rfingers
     direction -1 -4.49011e-011 -6.26677e-026   
     length 0.664896   
     axis 3.99874e-014 -90 -90   XYZ
    dof rx
    limits (0.0 90.0)
  end
  begin
     id 30
     name rthumb
     direction -0.707107 -6.34931e-011 0.707107   
     length 0.954662   
     axis -90 -45 -2.85299e-015   XYZ
    dof rx rz
    limits (-45.0 45.0)
           (-45.0 45.0)
  end
:hierarchy
  begin
    root lhipjoint rhipjoint lowerback
    lhipjoint lfemur
    lfemur ltibia
    ltibia lfoot
    lfoot ltoes
    rhipjoint rfemur
    rfemur rtibia
    rtibia rfoot
    rfoot rtoes
    lowerback upperback
    upperback thorax
    thorax lowerneck lclavicle rclavicle
    lowerneck upperneck
    upperneck head
    lclavicle lhumerus
    lhumerus lradius
    lradius lwrist
    lwrist lhand lthumb
    lhand lfingers
    rclavicle rhumerus
    rhumerus rradius
    rradius rwrist
    rwrist rhand rthumb
    rhand rfingers
  end

#!OML:ASF F:\VICON\USERDATA\INSTALL\rory3\rory3.ASF
:FULLY-SPECIFIED
:DEGREES
272
root 12.8503 17.285 9.76429 1.37674 2.62906 3.34878
lowerback 7.91616 0.900258 -7.67736
upperback 1.12362 0.653765 3.08783
thorax -3.39652 0.44162 7.53102
lowerneck 8.57386 -16.4763 -20.1056
upperneck 21.6165 -27.138 17.7745
head 10.9422 -13.5464 6.61898
rclavicle 3.37934e-015 1.27222e-014
rhumerus -33.9525 -17.0971 -72.9539
rradius 50.4308
rwrist -10.6059
rhand -16.1065 21.8975
rfingers 7.12502
rthumb 10.0974 -7.84027
lclavicle 3.37934e-015 1.27222e-014
lhumerus -78.4642 42.8255 16.5965
lradius 16.9428
lwrist -10.8039
lhand -10.6012 35.3781
lfingers 7.12502
lthumb 15.4046 64.7841
rfemur -22.466 4.54364 1.99237
rtibia 35.3783
rfoot -9.65546 -6.29858
rtoes 14.7848
lfemur -8.68563 -2.1472 -21.9058
ltibia 34.7077
lfoot -23.4758 -3.20498
ltoes -1.70872
273
root 12.8758 17.2834 9.77385 1.41005 2.56753 3.28371
lowerback 8.09942 0.92452 -7.5632
upperback 0.900336 0.679825 3.10221
thorax -3.7383 0.476631 7.47876
lowerneck 9.01412 -16.2994 -20.3066
upperneck 21.7781 -26.9988 17.811
head 10.9329 -13.5243 6.7351
rclavicle -1.03368e-014 -2.3059e-014
rhumerus -34.7179 -18.5075 -72.5286
rradius 48.1103
rwrist -11.2911
rhand -16.5335 21.6017
rfingers 7.12502
rthumb 9.68545 -8.15559
lclavicle -1.03368e-014 -2.3059e-014
lhumerus -78.9193 43.0988 16.7691
lradius 16.6734
lwrist -11.5832
lhand -10.7581 35.2054
lfingers 7.12502
lthumb 15.2535 64.623
rfemur -22.5026 4.80899 1.9646
rtibia 35.3185
rfoot -9.57963 -6.52226
rtoes 14.8691
lfemur -8.68871 -2.25261 -21.9592
ltibia 34.7087
lfoot -23.4703 -2.9436
ltoes -2.0698
274
root 12.9005 17.2831 9.78725 1.45986 2.5668 3.33344
lowerback 8.02129 0.876929 -7.60291
upperback 0.81277 0.61744 3.1162
thorax -3.7758 0.451152 7.52435
lowerneck 10.2117 -15.9375 -20.9829
upperneck 21.4155 -26.8402 18.6461
head 10.7981 -13.5562 7.27701
rclavicle 1.68967e-015 1.19271e-014
rhumerus -35.2827 -19.9472 -72.0765
rradius 45.7243
rwrist -12.1052
rhand -17.045 21.2474
rfingers 7.12502
rthumb 9.19196 -8.53225
lclavicle 1.68967e-015 1.19271e-014
lhumerus -79.1941 43.5533 17.2411
lradius 16.4934
lwrist -11.9842
lhand -10.9841 35.0883
lfingers 7.12502
lthumb 15.0358 64.5223
rfemur -22.5227 4.88145 1.82392
rtibia 35.2671
rfoot -9.43722 -6.66488
rtoes 14.8269
lfemur -8.65902 -2.29941 -22.1157
ltibia 34.6675
lfoot -23.4399 -2.96654
ltoes -1.51989
275
root 12.9273 17.2842 9.80507 1.38411 2.54777 3.40175
lowerback 7.97093 0.826329 -7.67465
upperback 0.837869 0.54944 3.16257
thorax -3.70954 0.414881 7.62364
lowerneck 9.64079 -15.8354 -21.4115
upperneck 22.1642 -26.7732 18.5956
head 11.2326 -13.5075 7.28068
rclavicle 9.34288e-015 2.94201e-014
rhumerus -35.7093 -21.4446 -71.4506
rradius 43.2417
rwrist -12.9948
rhand -17.4831 20.8521
rfingers 7.12502
rthumb 8.76912 -8.94577
lclavicle 9.34288e-015 2.94201e-014
lhumerus -79.5803 44.3024 17.567
lradius 16.3773
lwrist -12.4145
lhand -10.9433 34.7258
lfingers 7.12502
lthumb 15.0751 64.1569
rfemur -22.4074 4.95211 1.67578
rtibia 35.2523
rfoot -9.43304 -6.74891
rtoes 14.9673
lfemur -8.46195 -2.37011 -22.3165
ltibia 34.619
lfoot -23.5001 -2.89446
ltoes -1.22255
276
root 12.9578 17.2812 9.82233 1.25059 2.79264 3.56437
lowerback 8.06593 0.701724 -7.70361
upperback 0.827339 0.373205 3.15192
thorax -3.74064 0.329181 7.64973
lowerneck 9.74209 -15.6674 -21.545
upperneck 22.4508 -26.5724 18.4641
head 11.2751 -13.4355 7.30881
rclavicle -1.30204e-014 1.98785e-014
rhumerus -36.2816 -22.9573 -70.677
rradius 40.8889
rwrist -13.8085
rhand -18.0605 20.3473
rfingers 7.12502
rthumb 8.2119 -9.47308
lclavicle -1.30204e-014 1.98785e-014
lhumerus -80.5462 45.157 16.8369
lradius 16.0871
lwrist -13.6489
lhand -10.2998 33.7744
lfingers 7.12502
lthumb 15.695 63.1579
rfemur -22.0641 4.72029 1.41185
rtibia 35.2537
rfoot -9.31365 -6.68989
rtoes 14.249
lfemur -8.2072 -2.54122 -22.6291
ltibia 34.5791
lfoot -23.5411 -2.89481
ltoes -1.13547
277
root 12.9776 17.2809 9.83382 1.22582 3.07204 3.5258
lowerback 7.97839 0.60479 -7.58599
upperback 0.884761 0.262374 3.17191
thorax -3.60943 0.264126 7.6143
lowerneck 9.95209 -15.5024 -21.5069
upperneck 22.4706 -26.3814 18.5462
head 11.2055 -13.3565 7.40024
rclavicle 1.31198e-014 -5.56597e-015
rhumerus -36.7095 -24.8086 -69.8248
rradius 38.4742
rwrist -14.4912
rhand -18.8044 19.5552
rfingers 7.12502
rthumb 7.49399 -10.2921
lclavicle 1.31198e-014 -5.56597e-015
lhumerus -81.3312 46.1899 15.9677
lradius 15.6887
lwrist -15.0641
lhand -9.69471 33.0663
lfingers 7.12502
lthumb 16.2776 62.403
rfemur -21.8248 4.65134 1.41065
rtibia 35.2647
rfoot -9.42127 -6.8959
rtoes 14.1418
lfemur -8.17371 -2.4844 -22.6102
ltibia 34.5807
lfoot -23.4896 -3.26304
ltoes -0.505083
278
root 12.9885 17.2813 9.84378 1.26349 3.14199 3.41943
lowerback 7.89769 0.603846 -7.52922
upperback 0.918793 0.273469 3.20158
thorax -3.5303 0.264222 7.61117
lowerneck 9.46049 -15.4537 -21.3217
upperneck 23.0836 -26.2831 18.3412
head 11.4453 -13.2632 7.28711
rclavicle -1.66979e-014 4.21423e-014
rhumerus -37.1238 -26.8169 -68.8453
rradius 35.9669
rwrist -15.1505
rhand -19.3982 18.8137
rfingers 7.12502
rthumb 6.92079 -11.0532
lclavicle -1.66979e-014 4.21423e-014
lhumerus -79.7132 46.6091 18.5666
lradius 15.7449
lwrist -14.1939
lhand -9.68825 32.7816
lfingers 7.12502
lthumb 16.2838 62.1178
rfemur -21.7514 4.87238 1.52094
rtibia 35.2617
rfoot -9.66542 -7.27578
rtoes 14.3831
lfemur -8.25206 -2.31354 -22.4784
ltibia 34.627
lfoot -23.4836 -3.59006
ltoes 0.115828
